PathFileType	4	(X/Y/Z)	34_2_78_p0_0-706.trc
DataRate	CameraRate	NumFrames	NumMarkers	Units	OrigDataRate	OrigDataStartFrame	OrigNumFrames
60.0	60.0	5	27	m	60.0	353	707
Frame#	Time	RHip			RKnee			RAnkle			RBigToe			RSmallToe			RHeel			LHip			LKnee			LAnkle			LBigToe			LSmallToe			LHeel			Neck			Head			Nose			RShoulder			RElbow			RWrist			RThumb			RIndex			RPinky			LShoulder			LElbow			LWrist			LThumb			LIndex			LPinky			
		X1	Y1	Z1	X2	Y2	Z2	X3	Y3	Z3	X4	Y4	Z4	X5	Y5	Z5	X6	Y6	Z6	X7	Y7	Z7	X8	Y8	Z8	X9	Y9	Z9	X10	Y10	Z10	X11	Y11	Z11	X12	Y12	Z12	X13	Y13	Z13	X14	Y14	Z14	X15	Y15	Z15	X16	Y16	Z16	X17	Y17	Z17	X18	Y18	Z18	X19	Y19	Z19	X20	Y20	Z20	X21	Y21	Z21	X22	Y22	Z22	X23	Y23	Z23	X24	Y24	Z24	X25	Y25	Z25	X26	Y26	Z26	X27	Y27	Z27	
353	5.883333333333334	0.3418273943859334	0.48021189471030906	1.0288669470904772	0.3647919429630047	0.5873300897672943	1.3902971557829382	0.37010553452921213	0.6727842697474811	1.7275917048262273	0.33874375708956433	0.5560614639860939	1.7771900860631977	0.409239488293114	0.5833384034970921	1.7839761553016524	0.3514248267135115	0.7936051023759129	1.8045966209054576	0.15757377591981533	0.5416501778904995	1.0376998157365724	0.1644668253033946	0.6530047110094456	1.4200279959500364	0.17910244723688193	0.7477858681940545	1.7631501286539337	0.1898151450438052	0.5267233440933257	1.748718446408297	0.13414790521475042	0.6137079060814681	1.773485748484692	0.1900013078371626	0.7796141230244119	1.7966370401227234	0.25108828628936286	0.4460392337924458	0.542373694246158	0.21175283184577548	0.33021354081438115	0.32081381523154395	0.2257961547428347	0.291619433050013	0.45960911760777245	0.4021097979955967	0.4110043088713726	0.6142836397544005	0.41349090873132605	0.32380835637854466	0.8171732537917376	0.22850597673965053	0.23006121634119223	0.8499060830905986	0.1254035715449522	0.22399593028786743	0.8395400779180575	0.11022208935804392	0.22858466968585797	0.8648954795028806	0.14180296295036185	0.22949183498220008	0.8966540765979014	0.12082261978648424	0.4682224777256231	0.6128600896098753	0.08128273012294866	0.5331404433636806	0.8185032369856158	0.08905619193379273	0.2800196368411861	0.8914889092173807	0.10618473539029942	0.19254681646294453	0.8800594401085792	0.09673159865176262	0.1675005323809591	0.920650342954441	0.11589782703384133	0.20988790020840253	0.951705640369477
354	5.9	0.34245008736997906	0.4827997559886166	1.0329416564549803	0.36479713204689007	0.5874866846454153	1.3904448787583332	0.3701572315571293	0.6728873078068451	1.7276443568084092	0.3386382901625245	0.5558570132444878	1.777201602509185	0.4139094730042464	0.5844908045735681	1.784257754373383	0.3515550407454858	0.7937895540827695	1.8045450456279668	0.15744824971818216	0.5415887569343334	1.037930669559912	0.16518274243357764	0.6561240952341625	1.4253808844834246	0.17909471458387669	0.7477812498232045	1.7631326279663921	0.18984792980783705	0.5270258439870419	1.7489016698940258	0.13410167889775054	0.6139799168096148	1.7735074495903191	0.18995619938817648	0.779603303236173	1.7966471738900003	0.251041639154468	0.44605571993607057	0.5423366005208248	0.2117457738255906	0.33032382027353707	0.3208374766234395	0.2257608721948337	0.2917159407842036	0.45964232402357325	0.40212722897359215	0.4109498915601445	0.614277520486201	0.41341387485725906	0.3235368785018136	0.817192192077712	0.22826526879485212	0.23029252026063202	0.8500154934389332	0.12090539241252067	0.23548351436617804	0.8393733211860079	0.11002898501517057	0.22975709963634078	0.8650901395939481	0.13507121200652233	0.2314020733259862	0.9004791535385509	0.11601194326929874	0.48216374871338474	0.6129116735252315	0.08586285179352846	0.5403511537100459	0.8236366230764429	0.08915284489101298	0.2802962444010446	0.8913480972233483	0.10627683805323435	0.19028535899368734	0.8695392103154671	0.1006898146106533	0.16673772249001498	0.9126193082454217	0.11954864520683718	0.21226383255874282	0.9485088047108284
355	5.916666666666667	0.34634931836657207	0.4698350280610899	1.0276169546044769	0.36036569784573824	0.5859008654036484	1.390186006414851	0.3692093897953165	0.6747776294486315	1.7326603483296055	0.3387704706372635	0.5558938831471284	1.7772616775775336	0.4092361981359171	0.5833454814908416	1.7840674669259906	0.3516619810251583	0.7946330698991048	1.8047201044511612	0.15750160119329434	0.5418898482805176	1.038283459444602	0.16519196176156978	0.6560508900337242	1.4253326701315985	0.17915069645052045	0.7480395657014419	1.763280416101798	0.19066091196873508	0.5299483731371385	1.7538749818950259	0.1341858180990862	0.6138049330397465	1.7735270588721834	0.19007209131733957	0.7802563333287924	1.7970114734235962	0.2510170549155685	0.44620269018811687	0.5423047087174885	0.21172182238779189	0.33024299213092795	0.320892337452712	0.22156713285392682	0.303557932213774	0.4591925292034491	0.402111066488647	0.4110449997127541	0.6143067360626884	0.41336965346078214	0.3234674351444052	0.8172466715495204	0.22834769569821323	0.22996370405889863	0.8498931185343855	0.11688672145100537	0.23318374764199912	0.8396640584263775	0.11001587041053937	0.21465161049323844	0.8603641038132773	0.1388225079545809	0.2170546395084257	0.8948731367623903	0.11579222059409328	0.4803510762212357	0.609535309636107	0.08774297433208054	0.5514942856459216	0.824010968800214	0.0922029573992535	0.291278389571559	0.8893123320054972	0.10623249231183331	0.18959002017968724	0.8693314563899527	0.09653784886662771	0.16191405290595665	0.9092977581494978	0.11594002605697064	0.20977231241266653	0.9516586761847697
356	5.933333333333334	0.34238640090611794	0.46849772879901197	1.0278636068512517	0.3595226029863085	0.587276215490326	1.3947007331474188	0.36914131851843507	0.674434330942307	1.7325017750054708	0.3385658475121878	0.5557042301543473	1.7771359985293096	0.40915220806306113	0.5832099489536936	1.784015777766056	0.35157864398901956	0.7938908393860944	1.8046330058256654	0.15762074064856152	0.5420374327098406	1.0382685023610279	0.1651904148551635	0.6559904136106176	1.4252320458440373	0.17914591111346137	0.7479085408559536	1.7631280184889557	0.18990231138285243	0.5271424398928433	1.7489703854421903	0.13415551074241255	0.6138925181100808	1.7735463239226925	0.1900628947241733	0.7801241316967702	1.7969130153430801	0.2510390501820755	0.44605422914092807	0.5422872773084891	0.2117438692672911	0.33024431234932733	0.32083358175344834	0.22155781325676988	0.3035349128709579	0.45911725928680536	0.3986969895301891	0.39985631013208855	0.6144397379064594	0.4134250178457489	0.3232990019467488	0.8173376030672915	0.23254837463932218	0.23072807140486917	0.8497798313735235	0.12488817786105551	0.2214662821985677	0.8349844160332879	0.11114605361731487	0.2143586937038344	0.8598255955044852	0.1397747210779182	0.21602315594914664	0.8917781498808206	0.11609890285444058	0.4828366979118235	0.6127551508972661	0.08869584436506205	0.5528438739754711	0.8229314738845328	0.09159733593668223	0.29205899261823615	0.8863534752354986	0.10488862350212699	0.19057031235513266	0.8732165982019544	0.09275645551359413	0.15438132076472147	0.9087189117354184	0.11151366530246397	0.2076060385380664	0.9521415005106199
357	5.95	0.3464036099925623	0.4697232958799081	1.0278409999316434	0.3602859072571406	0.5858874923228998	1.390313346001505	0.3697344587290064	0.6742029834051098	1.7237688766862234	0.33871197247625484	0.5560790185465322	1.777180214921529	0.4092806360525426	0.5833360969910327	1.7840104145925317	0.35153428080062615	0.7936266357274029	1.8045486048583135	0.15730860813410988	0.5430578494446754	1.0343474813942313	0.16521918563651417	0.6560944985315227	1.42523993149739	0.17871733720721972	0.7493751210727738	1.7593591183721304	0.18984865294862677	0.5269333288020381	1.748729804396589	0.13414843970559825	0.6138508272567561	1.7734938425262488	0.19013862743778556	0.7799304963257601	1.7969015483416586	0.25421622424665574	0.45904635816113804	0.5418383514198478	0.2117356396327527	0.33019226341862795	0.3208358833924594	0.2214971655872428	0.30362959081564134	0.45904689081289146	0.402110159881489	0.41109850932327185	0.6143996527048178	0.41708825551845674	0.31022707780962033	0.8161783486132208	0.2369177177069851	0.21874373532166247	0.8485325565190378	0.124849506836605	0.2206556106655051	0.8352536507702291	0.1122527496766101	0.20498296790603318	0.8589404300011189	0.15348912598031594	0.1813554083877432	0.8875736987485174	0.11842323562039994	0.4931689683002119	0.6092534499121699	0.0887838890361025	0.550193653051632	0.8183600296928425	0.09166182258583437	0.2919085395896231	0.8861880149708763	0.10310028046451906	0.17883721472597483	0.868696274602929	0.09282217554478019	0.151214247562705	0.9011991604568631	0.10726193072090241	0.2055306258366209	0.9483466405509929
